<svg width="98" height="112" viewBox="0 0 98 112" fill="none" xmlns="http://www.w3.org/2000/svg">
<path d="M89.4558 67.7589H63.0744C62.6192 67.7589 62.1826 67.5524 61.8607 67.1849C61.5388 66.8173 61.358 66.3189 61.358 65.7991C61.358 65.2793 61.5388 64.7808 61.8607 64.4133C62.1826 64.0458 62.6192 63.8393 63.0744 63.8393H79.8954C80.2142 63.8393 80.5266 63.738 80.7978 63.5466C81.0689 63.3553 81.288 63.0815 81.4306 62.756C81.5731 62.4305 81.6335 62.066 81.6049 61.7036C81.5762 61.3411 81.4598 60.9949 81.2685 60.7037L75.8104 52.3945C74.947 51.0802 73.8276 50.0134 72.5406 49.2787C71.2536 48.5439 69.8345 48.1614 68.3956 48.1614H62.4567C62.0014 48.1614 61.5649 47.9549 61.243 47.5874C60.9211 47.2199 60.7403 46.7214 60.7403 46.2016C60.7403 45.6819 60.9211 45.1834 61.243 44.8158C61.5649 44.4483 62.0014 44.2418 62.4567 44.2418H76.6C76.9217 44.2446 77.2376 44.1441 77.5117 43.9518C77.7857 43.7595 78.007 43.4832 78.1501 43.1542C78.2933 42.8253 78.3526 42.457 78.3213 42.0915C78.29 41.7259 78.1693 41.3777 77.9731 41.0867L72.412 32.7185C71.545 31.4239 70.4278 30.3754 69.1476 29.6547C67.8673 28.9341 66.4587 28.5608 65.0313 28.5639H61.8217C61.3665 28.5639 60.9299 28.3575 60.608 27.9899C60.2861 27.6224 60.1053 27.1239 60.1053 26.6042C60.1053 26.0844 60.2861 25.5859 60.608 25.2184C60.9299 24.8508 61.3665 24.6444 61.8217 24.6444H69.7171C70.033 24.6463 70.3433 24.5487 70.6137 24.3622C70.8841 24.1757 71.1043 23.9076 71.2498 23.5875C71.3953 23.2673 71.4606 22.9075 71.4386 22.5476C71.4165 22.1878 71.3078 21.8419 71.1246 21.548L59.0239 1.95057C58.8609 1.68905 58.6442 1.47722 58.3928 1.3337C58.1414 1.19018 57.863 1.11936 57.582 1.12746C57.1268 1.12746 56.6902 1.33393 56.3683 1.70145C56.0465 2.06896 55.8656 2.56743 55.8656 3.08718V99.1148C55.8656 101.194 55.1423 103.188 53.8547 104.658C52.5672 106.128 50.8209 106.954 49 106.954C47.1791 106.954 45.4328 106.128 44.1453 104.658C42.8577 103.188 42.1344 101.194 42.1344 99.1148V3.08704C42.1344 2.56729 41.9536 2.06882 41.6317 1.7013C41.3098 1.33379 40.8732 1.12732 40.418 1.12732C40.1398 1.13 39.8663 1.20989 39.6211 1.3601C39.3759 1.5103 39.1664 1.72632 39.0106 1.98955L26.9098 21.5872C26.7375 21.878 26.6367 22.2164 26.6181 22.5669C26.5995 22.9175 26.6638 23.2673 26.8041 23.5797C26.9445 23.8922 27.1558 24.1559 27.416 24.3432C27.6761 24.5305 27.9756 24.6345 28.283 24.6444H36.1785C36.6337 24.6444 37.0703 24.8508 37.3922 25.2184C37.714 25.5859 37.8949 26.0844 37.8949 26.6042C37.8949 27.1239 37.714 27.6224 37.3922 27.9899C37.0703 28.3575 36.6337 28.5639 36.1785 28.5639H32.9688C31.543 28.5661 30.1368 28.9439 28.8596 29.6679C27.5825 30.3919 26.4689 31.4426 25.6054 32.7382L20.0442 41.1063C19.848 41.3973 19.7273 41.7455 19.696 42.1111C19.6647 42.4766 19.724 42.8449 19.8672 43.1738C20.0104 43.5028 20.2316 43.7792 20.5057 43.9715C20.7798 44.1637 21.0957 44.2642 21.4174 44.2614H35.5605C36.0157 44.2614 36.4523 44.4679 36.7742 44.8354C37.096 45.2029 37.2769 45.7014 37.2769 46.2212C37.2769 46.7409 37.096 47.2394 36.7742 47.607C36.4523 47.9745 36.0157 48.181 35.5605 48.181H29.6046C28.1686 48.184 26.7528 48.568 25.469 49.3026C24.1852 50.0372 23.0685 51.1024 22.2069 52.414L16.7316 60.7037C16.5404 60.9949 16.4239 61.3411 16.3953 61.7036C16.3667 62.066 16.427 62.4305 16.5695 62.756C16.7121 63.0815 16.9312 63.3553 17.2024 63.5466C17.4735 63.738 17.786 63.8393 18.1047 63.8393H34.9254C35.3806 63.8393 35.8171 64.0458 36.139 64.4133C36.4609 64.7808 36.6418 65.2793 36.6418 65.7991C36.6418 66.3189 36.4609 66.8173 36.139 67.1849C35.8171 67.5524 35.3806 67.7589 34.9254 67.7589H8.54448C7.54595 67.7589 6.55719 67.9834 5.63467 68.4197C4.71214 68.856 3.87392 69.4955 3.16785 70.3017C1.74188 71.9298 0.940777 74.138 0.940777 76.4406V77.5576C0.940777 78.0774 1.1216 78.5758 1.44348 78.9433C1.76536 79.3109 2.20191 79.5173 2.65712 79.5173H34.4279C34.8831 79.5173 35.3196 79.7238 35.6415 80.0913C35.9634 80.4588 36.1442 80.9573 36.1442 81.477C36.1442 81.9968 35.9634 82.4953 35.6415 82.8628C35.3196 83.2303 34.8831 83.4368 34.4279 83.4368H2.65712C2.43171 83.4368 2.20851 83.4874 2.00026 83.5859C1.79201 83.6844 1.60279 83.8287 1.44339 84.0107C1.284 84.1927 1.15757 84.4087 1.0713 84.6465C0.985042 84.8843 0.940643 85.1391 0.940643 85.3965V108.914C0.940643 109.433 1.12147 109.932 1.44335 110.299C1.60272 110.481 1.79193 110.626 2.00017 110.724C2.2084 110.823 2.43159 110.873 2.65698 110.873H95.3429C95.5683 110.873 95.7915 110.823 95.9997 110.724C96.208 110.626 96.3972 110.481 96.5566 110.299C96.716 110.117 96.8424 109.901 96.9287 109.664C97.015 109.426 97.0594 109.171 97.0594 108.914V85.3965C97.0594 85.1391 97.015 84.8843 96.9287 84.6465C96.8425 84.4088 96.716 84.1927 96.5567 84.0108C96.3973 83.8288 96.2081 83.6844 95.9998 83.5859C95.7916 83.4874 95.5684 83.4368 95.343 83.4368H63.5721C63.1169 83.4368 62.6804 83.2303 62.3585 82.8628C62.0366 82.4953 61.8558 81.9968 61.8558 81.477C61.8558 80.9573 62.0366 80.4588 62.3585 80.0913C62.6804 79.7238 63.1169 79.5173 63.5721 79.5173H95.3429C95.5683 79.5173 95.7915 79.4666 95.9997 79.3682C96.2079 79.2697 96.3971 79.1253 96.5565 78.9433C96.7159 78.7614 96.8423 78.5453 96.9286 78.3076C97.0148 78.0698 97.0592 77.815 97.0592 77.5576V76.4404C97.0592 74.1379 96.2581 71.9297 94.8321 70.3016C93.4062 68.6735 91.4724 67.7589 89.4558 67.7589ZM28.4031 102.094C28.3987 102.347 28.3087 102.588 28.1519 102.767C27.9951 102.946 27.7838 103.049 27.5621 103.054H15.5472C15.3255 103.049 15.1142 102.946 14.9574 102.767C14.8006 102.588 14.7106 102.347 14.7062 102.094V95.7831C14.7062 94.5944 15.1174 93.4538 15.8503 92.6097C16.5833 91.7655 17.5786 91.2861 18.6196 91.2758H24.4554C25.5024 91.2758 26.5065 91.7507 27.2469 92.596C27.9872 93.4413 28.4031 94.5878 28.4031 95.7832V102.094ZM69.5969 95.7831C69.5969 94.5877 70.0128 93.4412 70.7532 92.5959C71.4935 91.7507 72.4976 91.2758 73.5446 91.2758H79.3804C80.4274 91.2758 81.4315 91.7507 82.1719 92.596C82.9122 93.4413 83.3281 94.5878 83.3281 95.7832V102.094C83.3237 102.347 83.2337 102.588 83.0769 102.767C82.9201 102.946 82.7087 103.049 82.4871 103.054H70.4722C70.2505 103.049 70.0392 102.946 69.8824 102.767C69.7256 102.588 69.6356 102.347 69.6311 102.094L69.5969 95.7831Z" fill="black"/>
</svg>
